<?xml version="1.0" encoding="UTF-8" standalone="no"?>
<svg
   xmlns:dc="http://purl.org/dc/elements/1.1/"
   xmlns:cc="http://creativecommons.org/ns#"
   xmlns:rdf="http://www.w3.org/1999/02/22-rdf-syntax-ns#"
   xmlns:svg="http://www.w3.org/2000/svg"
   xmlns="http://www.w3.org/2000/svg"
   xmlns:sodipodi="http://sodipodi.sourceforge.net/DTD/sodipodi-0.dtd"
   xmlns:inkscape="http://www.inkscape.org/namespaces/inkscape"
   version="1.1"
   id="svg22"
   width="163.84"
   height="163.84"
   viewBox="0 0 163.84 163.84"
   sodipodi:docname="clipboardblack.svg"
   inkscape:version="1.0.2-2 (e86c870879, 2021-01-15)">
  <metadata
     id="metadata28">
    <rdf:RDF>
      <cc:Work
         rdf:about="">
        <dc:format>image/svg+xml</dc:format>
        <dc:type
           rdf:resource="http://purl.org/dc/dcmitype/StillImage" />
        <dc:title></dc:title>
      </cc:Work>
    </rdf:RDF>
  </metadata>
  <defs
     id="defs26" />
  <sodipodi:namedview
     pagecolor="#ffffff"
     bordercolor="#666666"
     borderopacity="1"
     objecttolerance="10"
     gridtolerance="10"
     guidetolerance="10"
     inkscape:pageopacity="0"
     inkscape:pageshadow="2"
     inkscape:window-width="3361"
     inkscape:window-height="1417"
     id="namedview24"
     showgrid="false"
     inkscape:zoom="6.1523439"
     inkscape:cx="81.919998"
     inkscape:cy="81.919998"
     inkscape:window-x="71"
     inkscape:window-y="-8"
     inkscape:window-maximized="1"
     inkscape:current-layer="g30" />
  <g
     inkscape:groupmode="layer"
     inkscape:label="Image"
     id="g30">
    <path
       style="fill:#ffffff;stroke-width:0.32"
       d="m 74.56,134.08 v -3.84 H 51.84 29.12 V 81.123133 32.006266 l 15.118698,-0.08313 15.1187,-0.08313 0.221773,-1.775807 c 1.038096,-8.312292 8.898787,-14.367496 17.016432,-13.108001 6.532944,1.013621 11.75361,6.228672 12.762887,12.74916 L 89.713667,32 H 104.85684 120 v 15.04 15.04 h 7.52 7.52 V 100 137.92 H 104.8 74.56 Z m 53.04162,-34 L 127.52,69.6 H 104.8 82.08 l -0.08253,30.08 c -0.04539,16.544 -0.01392,30.26 0.06996,30.48 0.120013,0.31482 4.993479,0.4 22.88414,0.4 h 22.73166 z M 74.56,92.48 V 62.08 H 93.6 112.64 V 50.72 39.36 h -4 -4 v 7.52 7.52 H 74.4 44.16 v -7.52 -7.52 h -3.84 -3.84 v 41.76 41.76 H 55.52 74.56 Z M 97.28,43.2 V 39.36 H 89.804122 82.328243 L 82.153824,34.8 C 81.943773,29.308503 81.488125,27.768318 79.543197,25.975548 76.482621,23.154408 70.751398,23.614423 68.566502,26.85659 67.29904,28.737377 66.88,30.824867 66.88,35.25808 V 39.36 H 59.2 51.52 v 3.84 3.84 H 74.4 97.28 Z"
       id="path34" />
  </g>
</svg>
